<?xml version="1.0" encoding="UTF-8"?>
<svg version="1.1" xmlns="http://www.w3.org/2000/svg" width="500" height="500">
<path d="M0 0 C0.33 0.66 0.66 1.32 1 2 C2.98888201 3.10144685 5.0162536 4.13418595 7.0625 5.125 C8.16722656 5.66382813 9.27195313 6.20265625 10.41015625 6.7578125 C11.26480469 7.16773438 12.11945313 7.57765625 13 8 C13 8.66 13 9.32 13 10 C13.556875 10.2475 14.11375 10.495 14.6875 10.75 C17.42410913 12.22924818 19.67650869 13.93467439 22 16 C22 16.66 22 17.32 22 18 C22.66 18 23.32 18 24 18 C27 21.46153846 27 21.46153846 27 24 C27.99 24.33 28.98 24.66 30 25 C35.63706243 32.7115014 39.53170405 41.67254291 42.984375 50.5234375 C44.46126102 54.12476725 46.20878011 57.5455045 48 61 C50.46229997 60.28254644 50.46229997 60.28254644 53 59 C53.42732422 58.07767578 53.42732422 58.07767578 53.86328125 57.13671875 C57.5381307 50.22901205 68.496287 46.50796935 75.49609375 44.00390625 C94.07183393 38.68175996 115.11957256 39.88920613 132.234375 49.01171875 C132.81703125 49.33785156 133.3996875 49.66398437 134 50 C134.3125 52.6875 134.3125 52.6875 134 56 C131.5 58.875 131.5 58.875 129 61 C128.13375 60.505 128.13375 60.505 127.25 60 C124.80116138 58.72924102 124.80116138 58.72924102 121 59 C121.33 60.32 121.66 61.64 122 63 C117.05 63 112.1 63 107 63 C107.99 63.66 108.98 64.32 110 65 C110 65.99 110 66.98 110 68 C108.35 68.66 106.7 69.32 105 70 C105.66 70.99 106.32 71.98 107 73 C107.33 72.34 107.66 71.68 108 71 C135.72 71 163.44 71 192 71 C192 76.62358277 192 76.62358277 190.1640625 79.609375 C189.76437256 80.27267822 189.36468262 80.93598145 188.95288086 81.61938477 C188.51468018 82.32248779 188.07647949 83.02559082 187.625 83.75 C186.70158741 85.27459697 185.77841705 86.79934067 184.85546875 88.32421875 C184.38028809 89.10071777 183.90510742 89.8772168 183.41552734 90.67724609 C181.21797397 94.28323484 179.07643978 97.92153605 176.9375 101.5625 C176.52830322 102.25666016 176.11910645 102.95082031 175.69750977 103.66601562 C172.37651076 109.31532015 169.14610695 115.01310123 165.95483398 120.73657227 C160.51955313 130.48044687 160.51955313 130.48044687 158 133 C146.76554515 134.8983099 134.95722605 133.92808928 123.625 133.5625 C121.80991457 133.50912468 119.99481029 133.45638613 118.1796875 133.40429688 C113.78620708 133.27685424 109.39306997 133.14085676 105 133 C103.67941835 137.26164255 104.75046675 139.36699712 106.4375 143.5 C108.82513287 149.90852628 109.47305815 155.80282649 109.4375 162.625 C109.43484131 163.47771484 109.43218262 164.33042969 109.42944336 165.20898438 C109.32620935 169.55258777 109.00694197 173.05059613 107 177 C105.68 177 104.36 177 103 177 C103 173.37 103 169.74 103 166 C102.34 166 101.68 166 101 166 C99.12456646 169.86763446 99.12456646 169.86763446 100 174 C98.34385343 174.38218767 96.67542976 174.71395102 95 175 C94 174 94 174 93.8671875 171.78515625 C93.86976563 170.88667969 93.87234375 169.98820313 93.875 169.0625 C93.87242187 168.16660156 93.86984375 167.27070313 93.8671875 166.34765625 C94 164 94 164 95 162 C94.01 162 93.02 162 92 162 C91.67 162.99 91.34 163.98 91 165 C89.35 164.67 87.7 164.34 86 164 C86 161.36 86 158.72 86 156 C84.64381501 157.12534105 84.64381501 157.12534105 84.9375 160.0625 C84.958125 161.031875 84.97875 162.00125 85 163 C84.67 161.68 84.34 160.36 84 159 C83.34 159 82.68 159 82 159 C82 159.66 82 160.32 82 161 C80.68 160.67 79.36 160.34 78 160 C78.33 158.35 78.66 156.7 79 155 C78.34 155 77.68 155 77 155 C76.67 155.99 76.34 156.98 76 158 C75.34 157.67 74.68 157.34 74 157 C73.26924352 154.6859378 72.59861742 152.35171131 72 150 C72.99 150 73.98 150 75 150 C75 149.34 75 148.68 75 148 C72.69 148.33 70.38 148.66 68 149 C68 148.01 68 147.02 68 146 C67.34 146 66.68 146 66 146 C64.93453047 142.8035914 64.92572162 140.34252724 65 137 C63.68 137.33 62.36 137.66 61 138 C58.64770618 134.32454091 59 131.27225674 59 127 C58.47613052 124.59581329 57.76542833 122.34412425 57 120 C55.10846411 121.89153589 55.57559137 125.20397656 55.37890625 127.7734375 C55 130 55 130 53 133 C52.71961596 135.50667581 52.71961596 135.50667581 52.8125 138.25 C52.81894531 139.16265625 52.82539063 140.0753125 52.83203125 141.015625 C52.94672385 143.9968123 52.94672385 143.9968123 53.47583008 146.89624023 C54.28235098 152.44721176 54.37136037 158.04519083 54.5546875 163.64453125 C54.59673309 164.90755569 54.63877869 166.17058014 54.68209839 167.47187805 C55.14394301 182.29067473 55.15183432 197.11163435 55.13037109 211.9362793 C55.12469912 215.88042948 55.12805617 219.82451176 55.13380814 223.76865959 C55.15390539 240.02527316 55.02421183 256.26910826 54.5546875 272.51953125 C54.53527225 273.21442846 54.51585701 273.90932568 54.49585342 274.62528038 C53.57122779 306.85754442 53.57122779 306.85754442 51 312 C50.77588512 314.24851493 50.60697706 316.50263069 50.46484375 318.7578125 C50.42186661 319.42086395 50.37888947 320.08391541 50.33460999 320.76705933 C50.19819167 322.88613723 50.06777719 325.00553655 49.9375 327.125 C49.8460981 328.56122311 49.75430607 329.99742144 49.66210938 331.43359375 C49.43687752 334.9554529 49.21702886 338.47762476 49 342 C49.66 340.35 50.32 338.7 51 337 C78.72 337 106.44 337 135 337 C135 316.21 135 295.42 135 274 C126.58886719 274.01740234 126.58886719 274.01740234 118.0078125 274.03515625 C114.46223843 274.04026383 110.91666888 274.04507766 107.37109375 274.04882812 C101.73941103 274.05481339 96.10774452 274.0619053 90.47607422 274.07543945 C85.93736468 274.08627912 81.3986725 274.09227914 76.85995102 274.09487724 C75.12554526 274.09672954 73.39114049 274.10034643 71.6567421 274.10573006 C69.23354259 274.11295478 66.81041552 274.11399033 64.38720703 274.11352539 C63.66503998 274.11712067 62.94287292 274.12071594 62.19882202 274.12442017 C57.22810432 274.11405216 57.22810432 274.11405216 55 273 C54.97291433 271.39592672 54.95356517 269.7917215 54.9375 268.1875 C54.92589844 267.29417969 54.91429687 266.40085937 54.90234375 265.48046875 C55 263 55 263 56 260 C56.11425138 258.45102275 56.17617915 256.89788234 56.20532227 255.3449707 C56.22526749 254.40422195 56.24521271 253.46347321 56.26576233 252.49421692 C56.28247482 251.48163315 56.29918732 250.46904938 56.31640625 249.42578125 C56.3475779 247.86732735 56.3475779 247.86732735 56.37937927 246.27738953 C56.44480656 242.95582747 56.50372821 239.63418584 56.5625 236.3125 C56.60569169 234.0618407 56.64930619 231.81118948 56.69335938 229.56054688 C56.80048098 224.0404489 56.90226016 218.52027163 57 213 C60.41632467 211.96063991 63.53805834 211.87672717 67.09967041 211.87974548 C68.9758606 211.87768349 68.9758606 211.87768349 70.88995361 211.87557983 C72.27331567 211.87911874 73.65667748 211.88275354 75.04003906 211.88647461 C76.49873859 211.88675672 77.95743825 211.88659827 79.4161377 211.8860321 C83.37446471 211.88574508 87.33276145 211.89162656 91.29108143 211.89860606 C95.42840738 211.90485531 99.56573402 211.90544465 103.70306396 211.90663147 C111.53694942 211.90974014 119.37082092 211.9179473 127.20470023 211.92798096 C136.12360566 211.93915648 145.04251176 211.94465618 153.96142244 211.94967639 C172.30762287 211.96013028 190.65381031 211.97772077 209 212 C210.00484201 216.15805512 210.14084571 220.16807537 210.12698364 224.42131042 C210.12854363 225.15921084 210.13010362 225.89711126 210.13171089 226.6573723 C210.13569284 229.12471069 210.13254215 231.59198734 210.12939453 234.05932617 C210.13074978 235.83019548 210.13253041 237.6010645 210.13470459 239.37193298 C210.13926321 244.17741008 210.13749607 248.98286572 210.1343255 253.78834319 C210.131795 258.81359271 210.13414126 263.83884038 210.13571167 268.86408997 C210.13753084 277.29994029 210.13513314 285.73578186 210.13037109 294.17163086 C210.12492367 303.93455842 210.12669563 313.69746512 210.1321975 323.46039218 C210.13672951 331.83667753 210.1373789 340.21295658 210.13475883 348.58924276 C210.13319723 353.59486535 210.13299923 358.60047812 210.13629532 363.60610008 C210.13917548 368.30840728 210.13719565 373.01068745 210.13140106 377.71299171 C210.13007448 379.4424294 210.13046587 381.17186935 210.13266373 382.90130615 C210.13537905 385.25411539 210.13198944 387.60683691 210.12698364 389.9596405 C210.12660662 391.27868472 210.12622959 392.59772894 210.12584114 393.95674419 C210 397 210 397 209 399 C187.63432866 399.02332696 166.26865942 399.04097817 144.90297794 399.05181217 C134.98324725 399.05697556 125.06352445 399.06401907 115.14379883 399.07543945 C106.50103021 399.08538498 97.85826732 399.09185311 89.21549314 399.09408849 C84.63627537 399.09539583 80.05707395 399.09848308 75.4778614 399.10573006 C71.17288294 399.11248821 66.86792767 399.11461738 62.56294441 399.11310768 C60.97821934 399.1133841 59.39349354 399.11539044 57.80877304 399.11920547 C55.65459589 399.12413953 53.5005077 399.12299937 51.34632874 399.12025452 C50.13785813 399.12117631 48.92938753 399.1220981 47.68429661 399.12304783 C45 399 45 399 44 398 C44.26992703 394.65290482 44.62005989 391.33587419 45 388 C45.26617714 385.59916605 45.52881659 383.19800339 45.7878418 380.79638672 C45.96831733 379.12317801 46.15197755 377.45030916 46.33911133 375.77783203 C46.80308402 371.49386129 47.10445232 367.31736249 47 363 C46.93941406 363.69867188 46.87882813 364.39734375 46.81640625 365.1171875 C46.73261719 366.02726562 46.64882813 366.93734375 46.5625 367.875 C46.44068359 369.23238281 46.44068359 369.23238281 46.31640625 370.6171875 C46 373 46 373 45 375 C44.79160985 376.64107242 44.63248275 378.28856293 44.5 379.9375 C44.4175 380.91460937 44.335 381.89171875 44.25 382.8984375 C44.1675 383.92195313 44.085 384.94546875 44 386 C43.837087 388.0211394 43.67059676 390.04199465 43.5 392.0625 C43.4278125 392.96097656 43.355625 393.85945313 43.28125 394.78515625 C43 397 43 397 42 399 C34.74 399 27.48 399 20 399 C19.67 398.34 19.34 397.68 19 397 C18.67 397.66 18.34 398.32 18 399 C14.98046875 399.484375 14.98046875 399.484375 11.1875 399.75 C9.94355469 399.84796875 8.69960937 399.9459375 7.41796875 400.046875 C4 400 4 400 2.05078125 398.953125 C-0.69985765 397.67473283 -2.80223361 398.29859125 -5.72119141 398.75634766 C-9.90736697 399.20393746 -14.01906815 398.64444219 -18.1875 398.1875 C-19.50137695 398.0627832 -19.50137695 398.0627832 -20.84179688 397.93554688 C-25.29457465 397.47305214 -28.85177788 396.7088588 -33 395 C-36.16905256 394.35508948 -39.36213989 393.89817636 -42.5625 393.4375 C-44.25153878 393.18779374 -45.94035055 392.93654602 -47.62890625 392.68359375 C-48.37213135 392.57587646 -49.11535645 392.46815918 -49.88110352 392.35717773 C-51.95672396 392.00729495 -53.96599858 391.53862359 -56 391 C-56 390.34 -56 389.68 -56 389 C-57.134375 388.896875 -58.26875 388.79375 -59.4375 388.6875 C-68.87395907 387.50377457 -77.61498831 383.29476208 -86 379 C-86 378.34 -86 377.68 -86 377 C-86.721875 376.87625 -87.44375 376.7525 -88.1875 376.625 C-90.98200584 376.0039987 -93.41259045 375.22183229 -96 374 C-96.33 373.34 -96.66 372.68 -97 372 C-98.62465628 371.05228384 -100.25282541 370.11006166 -101.8984375 369.19921875 C-104.19211286 367.89037426 -106.41129385 366.50251956 -108.625 365.0625 C-109.69621094 364.36833984 -109.69621094 364.36833984 -110.7890625 363.66015625 C-113.45759604 361.65639874 -115.67225744 359.39084402 -118 357 C-119.41925781 355.63294922 -119.41925781 355.63294922 -120.8671875 354.23828125 C-126.41071576 348.87072354 -131.35728344 343.60051947 -135.60546875 337.109375 C-137.05099565 334.82653249 -137.05099565 334.82653249 -139.3125 332.3125 C-141.51730074 329.2911064 -142.14627915 326.62831361 -143 323 C-143.66 323 -144.32 323 -145 323 C-145.50660156 321.62714844 -145.50660156 321.62714844 -146.0234375 320.2265625 C-146.46945313 319.03804688 -146.91546875 317.84953125 -147.375 316.625 C-148.03628906 314.84996094 -148.03628906 314.84996094 -148.7109375 313.0390625 C-149.7950342 309.95506554 -149.7950342 309.95506554 -152 308 C-153.56643681 302.97091339 -154.12592454 300.15095852 -153 295 C-144.42922402 294.95371573 -135.85850003 294.91815081 -127.28763008 294.89637566 C-123.30808227 294.88592614 -119.32861979 294.87174578 -115.34912109 294.84912109 C-111.51066114 294.82743415 -107.67228341 294.81544018 -103.83376694 294.81024551 C-102.36729513 294.80654227 -100.90082795 294.799311 -99.43439102 294.78853989 C-97.38470894 294.77407981 -95.33536918 294.77201971 -93.28564453 294.77294922 C-91.533582 294.76628738 -91.533582 294.76628738 -89.74612427 294.75949097 C-87 295 -87 295 -85 297 C-85 297.99 -85 298.98 -85 300 C-84.67 299.67 -84.34 299.34 -84 299 C-84.28875 297.9275 -84.5775 296.855 -84.875 295.75 C-88.58544712 281.71047037 -87.18388786 266.29121775 -86 252 C-87.55994099 258.98187183 -88.48462048 265.86606248 -89 273 C-92.44636281 274.051582 -95.61236051 274.12680574 -99.20556641 274.12939453 C-100.46011627 274.13254669 -101.71466614 274.13569885 -103.00723267 274.13894653 C-104.37200964 274.13715697 -105.73678628 274.13510607 -107.1015625 274.1328125 C-108.50353004 274.13348628 -109.90549746 274.13445693 -111.3074646 274.13571167 C-114.24112056 274.13718417 -117.17474603 274.13504783 -120.10839844 274.13037109 C-123.87243885 274.12466352 -127.63640811 274.12796212 -131.40044594 274.13394356 C-134.29314717 274.13755228 -137.18583144 274.13640933 -140.07853317 274.13381577 C-141.46684147 274.13314791 -142.85515129 274.13397002 -144.24345779 274.13629532 C-146.18004579 274.13882803 -148.11663918 274.13428493 -150.05322266 274.12939453 C-151.15590485 274.12859894 -152.25858704 274.12780334 -153.39468384 274.12698364 C-156 274 -156 274 -158 273 C-158 253.53 -158 234.06 -158 214 C-154.12970272 212.06485136 -152.7999924 211.75121699 -148.68359375 211.76953125 C-147.67232422 211.77146484 -146.66105469 211.77339844 -145.61914062 211.77539062 C-144.56919922 211.78763672 -143.51925781 211.79988281 -142.4375 211.8125 C-141.38369141 211.81314453 -140.32988281 211.81378906 -139.24414062 211.81445312 C-131.42185978 211.85938007 -131.42185978 211.85938007 -128 213 C-125.5050524 210.5743565 -123.16369446 208.21649912 -121.0625 205.4375 C-118.69357384 202.63785999 -116.04587565 201.00750895 -113 199 C-113 198.34 -113 197.68 -113 197 C-111.989375 196.896875 -110.97875 196.79375 -109.9375 196.6875 C-105.36193547 196.04410032 -105.36193547 196.04410032 -99 193 C-93.72 192.34 -88.44 191.68 -83 191 C-107.42 191 -131.84 191 -157 191 C-158.85503555 183.57985779 -157.13027616 177.8625285 -154 171 C-152.92364609 167.68814182 -151.9503939 164.34996999 -151 161 C-150.34 161 -149.68 161 -149 161 C-148.896875 160.319375 -148.79375 159.63875 -148.6875 158.9375 C-146.91603301 151.36850466 -142.75958241 144.72831415 -139 138 C-138.34 138 -137.68 138 -137 138 C-136.76023437 137.2884375 -136.52046875 136.576875 -136.2734375 135.84375 C-134.80351513 132.56122396 -132.94496753 130.24388186 -130.625 127.5 C-129.46871094 126.12328125 -129.46871094 126.12328125 -128.2890625 124.71875 C-127.53367187 123.8215625 -126.77828125 122.924375 -126 122 C-125.33871094 121.13632813 -124.67742187 120.27265625 -123.99609375 119.3828125 C-121.97904551 116.97498583 -119.95524926 115.24094615 -117.4375 113.375 C-115.26577931 111.7562807 -113.22996947 110.23812442 -111.34765625 108.2890625 C-110 107 -110 107 -108 107 C-108 106.34 -108 105.68 -108 105 C-106.37069398 103.94021716 -104.69484934 102.95145335 -103 102 C-101.22689471 100.85768553 -99.45613263 99.71172728 -97.6875 98.5625 C-90.34390533 93.89197379 -82.87172156 90.45323462 -74.8203125 87.1640625 C-72.62406637 86.25757864 -70.46954764 85.30574519 -68.3125 84.3125 C-64.96300736 82.98534254 -61.78611122 82.24805747 -58.26953125 81.53515625 C-55.36535562 80.85035064 -52.67622514 79.81946892 -49.921875 78.68359375 C-45.17233325 76.99422422 -40.7029478 76.89062666 -35.6875 76.9375 C-34.43324219 76.94652344 -33.17898437 76.95554687 -31.88671875 76.96484375 C-30.93410156 76.97644531 -29.98148438 76.98804687 -29 77 C-28.67 75.68 -28.34 74.36 -28 73 C-28.99 73 -29.98 73 -31 73 C-31 73.99 -31 74.98 -31 76 C-32.98 75.505 -32.98 75.505 -35 75 C-34.7215625 73.824375 -34.7215625 73.824375 -34.4375 72.625 C-33.74037734 70.02910225 -33.74037734 70.02910225 -35 68 C-35.99 68 -36.98 68 -38 68 C-39.32 68 -40.64 68 -42 68 C-42 66.68 -42 65.36 -42 64 C-41.34 64 -40.68 64 -40 64 C-40 63.01 -40 62.02 -40 61 C-39.34 61 -38.68 61 -38 61 C-38 60.34 -38 59.68 -38 59 C-39.32 59 -40.64 59 -42 59 C-42 59.99 -42 60.98 -42 62 C-45.63 62.33 -49.26 62.66 -53 63 C-52.67 61.68 -52.34 60.36 -52 59 C-51.34 59 -50.68 59 -50 59 C-50 58.34 -50 57.68 -50 57 C-50.66 57 -51.32 57 -52 57 C-52 56.34 -52 55.68 -52 55 C-55.465 55.495 -55.465 55.495 -59 56 C-59.33 55.01 -59.66 54.02 -60 53 C-59.34 53 -58.68 53 -58 53 C-58 51.68 -58 50.36 -58 49 C-57.45214844 48.88527344 -56.90429688 48.77054688 -56.33984375 48.65234375 C-53.59291294 47.88650494 -51.15593697 46.74837281 -48.5625 45.5625 C-28.8061784 37.32074552 -10.18128396 41.94171854 9 49 C9 47.68 9 46.36 9 45 C6.36 45 3.72 45 1 45 C1.24609375 43.109375 1.24609375 43.109375 2 41 C3.84765625 39.953125 3.84765625 39.953125 6.0625 39.25 C6.79597656 39.00765625 7.52945313 38.7653125 8.28515625 38.515625 C8.85105469 38.34546875 9.41695312 38.1753125 10 38 C6.87567603 35.47650757 3.61939504 33.72743854 0 32 C0 31.34 0 30.68 0 30 C-1.98 29.01 -1.98 29.01 -4 28 C-4 27.34 -4 26.68 -4 26 C-0.59437148 25.22157062 2.50765756 24.90021879 6 25 C6 24.01 6 23.02 6 22 C5.39671875 21.82984375 4.7934375 21.6596875 4.171875 21.484375 C-4.03544576 18.99570354 -4.03544576 18.99570354 -7 15 C-7 14.34 -7 13.68 -7 13 C-6.34 13 -5.68 13 -5 13 C-5 12.34 -5 11.68 -5 11 C-3.02 10.67 -1.04 10.34 1 10 C-0.175625 8.88625 -0.175625 8.88625 -1.375 7.75 C-3.56504531 5.45566682 -4.82731386 3.87841142 -6 1 C-3 0 -3 0 0 0 Z M11 46 C11 46.66 11 47.32 11 48 C11.66 48 12.32 48 13 48 C13 47.34 13 46.68 13 46 C12.34 46 11.68 46 11 46 Z M-50 54 C-50.33 54.66 -50.66 55.32 -51 56 C-50.01 55.67 -49.02 55.34 -48 55 C-48.66 54.67 -49.32 54.34 -50 54 Z M130 54 C130.66 54.66 131.32 55.32 132 56 C132 55.34 132 54.68 132 54 C131.34 54 130.68 54 130 54 Z M-26 69 C-25 71 -25 71 -25 71 Z M95 73 C95.66 73.66 96.32 74.32 97 75 C97.33 74.34 97.66 73.68 98 73 C97.01 73 96.02 73 95 73 Z M99 73 C99 73.66 99 74.32 99 75 C99.66 75 100.32 75 101 75 C101 74.34 101 73.68 101 73 C100.34 73 99.68 73 99 73 Z M102 74 C101.67 74.66 101.34 75.32 101 76 C101.99 75.67 102.98 75.34 104 75 C103.34 74.67 102.68 74.34 102 74 Z M-23 75 C-23.33 75.99 -23.66 76.98 -24 78 C-21.525 78.99 -21.525 78.99 -19 80 C-19 79.34 -19 78.68 -19 78 C-20.9600281 76.36323743 -20.9600281 76.36323743 -23 75 Z M-27 77 C-26.67 77.66 -26.34 78.32 -26 79 C-25.67 78.34 -25.34 77.68 -25 77 C-25.66 77 -26.32 77 -27 77 Z M88 77 C88.66 78.32 89.32 79.64 90 81 C90.99 81 91.98 81 93 81 C93 80.34 93 79.68 93 79 C94.32 79.33 95.64 79.66 97 80 C97 79.34 97 78.68 97 78 C94.03 77.67 91.06 77.34 88 77 Z M-18 78 C-19.485 81.96 -19.485 81.96 -21 86 C-17.65626525 85.44271087 -14.96687001 84.64826111 -12 83 C-13.32 82.67 -14.64 82.34 -16 82 C-16.33 80.68 -16.66 79.36 -17 78 C-17.33 78 -17.66 78 -18 78 Z M-10.625 80.5 C-11.07875 80.995 -11.5325 81.49 -12 82 C-10.02 82 -8.04 82 -6 82 C-6.33 81.01 -6.66 80.02 -7 79 C-9.12364481 78.77390663 -9.12364481 78.77390663 -10.625 80.5 Z M91 82 C89.02 82.33 87.04 82.66 85 83 C85 84.32 85 85.64 85 87 C87.49927769 87.33970765 89.99919595 87.67188032 92.5 88 C93.19609375 88.09539062 93.8921875 88.19078125 94.609375 88.2890625 C99.44700129 88.9161622 104.12181196 89.08789528 109 89 C109 88.67 109 88.34 109 88 C104.42188393 86.53500286 100.84329167 85.8923713 96 86 C93.6875 85.6875 93.6875 85.6875 92 85 C91.67 84.01 91.34 83.02 91 82 Z M-25 86 C-25 89 -25 89 -25 89 Z M-23 86 C-22.67 86.66 -22.34 87.32 -22 88 C-21.67 87.34 -21.34 86.68 -21 86 C-21.66 86 -22.32 86 -23 86 Z M109 89 C112.59098426 90.86731182 116.21761773 92.55581768 120 94 C120.99 93.67 121.98 93.34 123 93 C122.34 93 121.68 93 121 93 C121 92.34 121 91.68 121 91 C116.82262526 89.40861915 113.46839215 88.78721942 109 89 Z M-33 90 C-33.33 90.99 -33.66 91.98 -34 93 C-33.34 93 -32.68 93 -32 93 C-31.67 92.01 -31.34 91.02 -31 90 C-31.66 90 -32.32 90 -33 90 Z M-43 96 C-43.66 97.32 -44.32 98.64 -45 100 C-41.87802522 98.6910428 -41.87802522 98.6910428 -40 96 C-40.99 96 -41.98 96 -43 96 Z M-49 101 C-49 101.99 -49 102.98 -49 104 C-48.34 103.01 -47.68 102.02 -47 101 C-47.66 101 -48.32 101 -49 101 Z M138 102 C139 104 139 104 139 104 Z M-52 105 C-51 107 -51 107 -51 107 Z M-55 107 C-54.67 107.66 -54.34 108.32 -54 109 C-53.67 108.34 -53.34 107.68 -53 107 C-53.66 107 -54.32 107 -55 107 Z M141 107 C141 107.66 141 108.32 141 109 C141.99 108.67 142.98 108.34 144 108 C143.01 107.67 142.02 107.34 141 107 Z M-8 113 C-8.5534764 115.07553648 -9 116.84365964 -9 119 C-9.99 119.495 -9.99 119.495 -11 120 C-11 121.32 -11 122.64 -11 124 C-11.66 124 -12.32 124 -13 124 C-12.34 125.32 -11.68 126.64 -11 128 C-8.3555789 125.78209843 -7.11902558 124.43032326 -6.1875 121.0625 C-6.00751058 118.12267276 -6.24966626 115.83459415 -7 113 C-7.33 113 -7.66 113 -8 113 Z M88 113 C88.66 113.66 89.32 114.32 90 115 C90 114.34 90 113.68 90 113 C89.34 113 88.68 113 88 113 Z M137 113 C137 113.66 137 114.32 137 115 C137.66 114.67 138.32 114.34 139 114 C138.34 113.67 137.68 113.34 137 113 Z M119 114 C120 116 120 116 120 116 Z M146 114 C145.74969023 116.41619823 145.74969023 116.41619823 146 119 C147.485 119.99 147.485 119.99 149 121 C148.34 118.69 147.68 116.38 147 114 C146.67 114 146.34 114 146 114 Z M103 115 C103 116.32 103 117.64 103 119 C101.35 119 99.7 119 98 119 C97.67 118.01 97.34 117.02 97 116 C96.67 116.99 96.34 117.98 96 119 C95.34 119 94.68 119 94 119 C94.66 120.98 95.32 122.96 96 125 C96.37125 124.34 96.7425 123.68 97.125 123 C99 121 99 121 102.1875 120.75 C103.115625 120.8325 104.04375 120.915 105 121 C104.67 119.02 104.34 117.04 104 115 C103.67 115 103.34 115 103 115 Z M127 116 C127 117.98 127 119.96 127 122 C128.65 121.34 130.3 120.68 132 120 C132.33 120.99 132.66 121.98 133 123 C133 121.68 133 120.36 133 119 C130.40012797 116.54294304 130.40012797 116.54294304 127 116 Z M118 117 C117.67 118.32 117.34 119.64 117 121 C118.65 121 120.3 121 122 121 C121.34 119.68 120.68 118.36 120 117 C119.34 117 118.68 117 118 117 Z M139 118 C139.33 118.99 139.66 119.98 140 121 C140.99 120.67 141.98 120.34 143 120 C141.68 119.34 140.36 118.68 139 118 Z M-66 119 C-66.33 120.32 -66.66 121.64 -67 123 C-66.01 121.68 -65.02 120.36 -64 119 C-64.66 119 -65.32 119 -66 119 Z M-31 120 C-30.34 120.66 -29.68 121.32 -29 122 C-29 121.34 -29 120.68 -29 120 C-29.66 120 -30.32 120 -31 120 Z M-16 120 C-18.58777208 123.05580974 -18.58777208 123.05580974 -19 127 C-18.34 127 -17.68 127 -17 127 C-17 126.34 -17 125.68 -17 125 C-16.34 124.67 -15.68 124.34 -15 124 C-15.33 122.68 -15.66 121.36 -16 120 Z M38 121 C38.495 125.455 38.495 125.455 39 130 C36.69 130 34.38 130 32 130 C32 131.98 32 133.96 32 136 C31.34 136 30.68 136 30 136 C30 134.68 30 133.36 30 132 C29.34 132 28.68 132 28 132 C27.67 132.66 27.34 133.32 27 134 C26.34 134 25.68 134 25 134 C24.34 132.02 23.68 130.04 23 128 C21.32889958 130.96178773 20.67317248 133.37071192 20.375 136.75 C20.30023438 137.54921875 20.22546875 138.3484375 20.1484375 139.171875 C20.09945312 139.77515625 20.05046875 140.3784375 20 141 C18 140 18 140 16 137 C15.67 140.3 15.34 143.6 15 147 C13.02 147.66 11.04 148.32 9 149 C9 150.32 9 151.64 9 153 C7.35 153 5.7 153 4 153 C3.67 155.97 3.34 158.94 3 162 C3.83015625 161.68546875 4.6603125 161.3709375 5.515625 161.046875 C9.27598463 159.91708085 12.85385884 159.47147763 16.75 159.25 C17.45157227 159.20979736 18.15314453 159.16959473 18.87597656 159.12817383 C25.6049623 158.83349066 32.19514957 158.7294068 37.625 163.125 C38.07875 163.74375 38.5325 164.3625 39 165 C36.03 165.66 33.06 166.32 30 167 C30.99 167.66 31.98 168.32 33 169 C33 169.99 33 170.98 33 172 C31.88625 171.95875 30.7725 171.9175 29.625 171.875 C25.95633975 171.58878141 25.95633975 171.58878141 24 174 C24.7425 174.61875 24.7425 174.61875 25.5 175.25 C27 177 27 177 27 181 C26.01 180.34 25.02 179.68 24 179 C21.84725052 179.30840599 21.84725052 179.30840599 20 180 C20.66 180.33 21.32 180.66 22 181 C22 182.65 22 184.3 22 186 C20.02 185.67 18.04 185.34 16 185 C16.66 185.33 17.32 185.66 18 186 C18 186.66 18 187.32 18 188 C17.113125 188.2475 16.22625 188.495 15.3125 188.75 C11.9428119 189.79406082 11.9428119 189.79406082 9.625 192.125 C5.91116608 194.77773851 3.48995988 194.30440406 -1 194 C1.27919912 197.63912126 3.19826624 198.75530657 7.25 200.0625 C14.77140047 202.53776315 21.00718026 205.43988546 27.3125 210.1875 C31.26993243 213.60202296 31.26993243 213.60202296 36 215 C36.433125 215.9590625 36.433125 215.9590625 36.875 216.9375 C37.82823451 219.15206079 37.82823451 219.15206079 40 220 C41.44927425 217.1014515 41.22159399 214.48981755 41.31640625 211.25390625 C41.33718735 210.56932846 41.35796844 209.88475067 41.37937927 209.1794281 C41.42272097 207.71758381 41.46375313 206.25566954 41.50268555 204.79370117 C41.56069468 202.62984202 41.626331 200.46633055 41.69335938 198.30273438 C42.19801913 181.26365457 42.08930665 164.29676304 41.25537109 147.26928711 C41.12259512 144.51256951 41.00452914 141.75544019 40.88671875 138.99804688 C40.80296707 137.2291246 40.71836507 135.46024234 40.6328125 133.69140625 C40.59938751 132.87483047 40.56596252 132.0582547 40.53152466 131.2169342 C40.31577232 127.11058597 39.8769584 124.75391679 38 121 Z M142 121 C142 121.66 142 122.32 142 123 C142.66 123 143.32 123 144 123 C144 122.34 144 121.68 144 121 C143.34 121 142.68 121 142 121 Z M122 122 C122 122.66 122 123.32 122 124 C123.32 123.67 124.64 123.34 126 123 C124.68 122.67 123.36 122.34 122 122 Z M-69 124 C-68 127 -68 127 -68 127 Z M-24 124 C-24.33 125.65 -24.66 127.3 -25 129 C-23.68 128.67 -22.36 128.34 -21 128 C-21.66 128 -22.32 128 -23 128 C-23.33 126.68 -23.66 125.36 -24 124 Z M-49 126 C-49.33 126.99 -49.66 127.98 -50 129 C-50.66 129 -51.32 129 -52 129 C-51.65555119 131.47266765 -51.65555119 131.47266765 -51 134 C-50.34 134.33 -49.68 134.66 -49 135 C-48.67 132.03 -48.34 129.06 -48 126 C-48.33 126 -48.66 126 -49 126 Z M-38 126 C-38.37511719 126.63808594 -38.75023437 127.27617187 -39.13671875 127.93359375 C-39.64847656 128.75988281 -40.16023438 129.58617187 -40.6875 130.4375 C-41.43580078 131.67306641 -41.43580078 131.67306641 -42.19921875 132.93359375 C-44.38099448 135.43719323 -45.75480334 135.69593558 -49 136 C-48.67 137.98 -48.34 139.96 -48 142 C-46.2925002 140.71937515 -44.62626404 139.38232443 -43 138 C-43 137.34 -43 136.68 -43 136 C-42.01 135.67 -41.02 135.34 -40 135 C-40 134.34 -40 133.68 -40 133 C-39.01 132.67 -38.02 132.34 -37 132 C-36.84188612 128.94729537 -36.84188612 128.94729537 -38 126 Z M137 127 C138 129 138 129 138 129 Z M-32 128 C-32 129.32 -32 130.64 -32 132 C-31.01 131.67 -30.02 131.34 -29 131 C-29.33 130.34 -29.66 129.68 -30 129 C-28.68 128.67 -27.36 128.34 -26 128 C-27.98 128 -29.96 128 -32 128 Z M-74 131 C-73 133 -73 133 -73 133 Z M102 131 C102 131.99 102 132.98 102 134 C102.66 133.34 103.32 132.68 104 132 C103.34 131.67 102.68 131.34 102 131 Z M-32 134 C-31.34 134.66 -30.68 135.32 -30 136 C-30 135.34 -30 134.68 -30 134 C-30.66 134 -31.32 134 -32 134 Z M-15 134 C-15.33 134.66 -15.66 135.32 -16 136 C-18.0625 136.625 -18.0625 136.625 -20 137 C-20 137.66 -20 138.32 -20 139 C-21.03125 138.7525 -22.0625 138.505 -23.125 138.25 C-27.83762592 137.94595962 -29.46490711 138.98223778 -33 142 C-33 142.66 -33 143.32 -33 144 C-32.01 144 -31.02 144 -30 144 C-30.474375 145.0725 -30.94875 146.145 -31.4375 147.25 C-32.53766332 149.80839865 -33.45167003 152.25835017 -34 155 C-33.01 155 -32.02 155 -31 155 C-31.33 156.65 -31.66 158.3 -32 160 C-30.68 160.33 -29.36 160.66 -28 161 C-27.67 162.65 -27.34 164.3 -27 166 C-28.32 165.67 -29.64 165.34 -31 165 C-31 165.66 -31 166.32 -31 167 C-30.34 167.33 -29.68 167.66 -29 168 C-29 169.32 -29 170.64 -29 172 C-28.34 172 -27.68 172 -27 172 C-26.67 174.31 -26.34 176.62 -26 179 C-25.01 179 -24.02 179 -23 179 C-22.505 176.03 -22.505 176.03 -22 173 C-22.99 173 -23.98 173 -25 173 C-25 172.34 -25 171.68 -25 171 C-23.515 170.505 -23.515 170.505 -22 170 C-22.66 170 -23.32 170 -24 170 C-24 169.34 -24 168.68 -24 168 C-23.01 168 -22.02 168 -21 168 C-21.020625 166.700625 -21.04125 165.40125 -21.0625 164.0625 C-21.08399454 162.70834367 -21.07148199 161.35243917 -21 160 C-20.67 159.67 -20.34 159.34 -20 159 C-19.6992016 157.19223141 -19.43500834 155.3783322 -19.1875 153.5625 C-18.37219666 148.30692924 -16.9429583 143.87018234 -14.70703125 139.05859375 C-13.71408183 136.8456888 -13.71408183 136.8456888 -15 134 Z M-74 135 C-74 135.66 -74 136.32 -74 137 C-73.34 136.67 -72.68 136.34 -72 136 C-72.66 135.67 -73.32 135.34 -74 135 Z M-62 133 C-62.33 133.99 -62.66 134.98 -63 136 C-65.97 135.505 -65.97 135.505 -69 135 C-69.33 135.66 -69.66 136.32 -70 137 C-68.329375 137.2165625 -68.329375 137.2165625 -66.625 137.4375 C-63 138 -63 138 -61 139 C-60.67 137.02 -60.34 135.04 -60 133 C-60.66 133 -61.32 133 -62 133 Z M-56 136 C-56.66 137.32 -57.32 138.64 -58 140 C-57.01 140.495 -57.01 140.495 -56 141 C-55.67 139.35 -55.34 137.7 -55 136 C-55.33 136 -55.66 136 -56 136 Z M-61 139 C-61 139.66 -61 140.32 -61 141 C-60.01 140.67 -59.02 140.34 -58 140 C-58.99 139.67 -59.98 139.34 -61 139 Z M-49 142 C-49 145 -49 145 -49 145 Z M-51 145 C-50 148 -50 148 -50 148 Z M-53 147 C-52 149 -52 149 -52 149 Z M-54 149 C-53 151 -53 151 -53 151 Z M79 151 C79.33 151.99 79.66 152.98 80 154 C80.33 153.01 80.66 152.02 81 151 C80.34 151 79.68 151 79 151 Z M-55 152 C-55.391875 152.5775 -55.78375 153.155 -56.1875 153.75 C-58 156 -58 156 -60.8125 157.734375 C-64.31584154 160.22449521 -66.4842586 162.96556125 -68.8125 166.5 C-69.20630859 167.06847656 -69.60011719 167.63695312 -70.00585938 168.22265625 C-71.97837007 171.13913004 -73.1889115 173.60682242 -74 177 C-74.98504667 178.014733 -75.98626056 179.01393086 -77 180 C-78.20782549 182.15602778 -78.20782549 182.15602778 -79.1875 184.5 C-79.53167969 185.2734375 -79.87585938 186.046875 -80.23046875 186.84375 C-81.16806011 189.08933414 -81.16806011 189.08933414 -81 192 C-79.19015625 192.09087891 -79.19015625 192.09087891 -77.34375 192.18359375 C-75.72915876 192.26807818 -74.11457586 192.35272211 -72.5 192.4375 C-71.70851563 192.47681641 -70.91703125 192.51613281 -70.1015625 192.55664062 C-65.02875675 192.82691306 -60.01166663 193.14779092 -55 194 C-54.67 194.66 -54.34 195.32 -54 196 C-54.06582275 195.30551758 -54.13164551 194.61103516 -54.19946289 193.89550781 C-54.49790053 190.68123579 -54.78025842 187.4657331 -55.0625 184.25 C-55.16626953 183.15816406 -55.27003906 182.06632812 -55.37695312 180.94140625 C-56.21996676 171.11593703 -55.54591389 161.71717302 -54 152 C-54.33 152 -54.66 152 -55 152 Z M-3 158 C-3 159.98 -3 161.96 -3 164 C-2.34 163.34 -1.68 162.68 -1 162 C-1.66 160.68 -2.32 159.36 -3 158 Z M93 158 C94 161 94 161 94 161 Z M22 171 C22 171.66 22 172.32 22 173 C22.66 173 23.32 173 24 173 C24 172.34 24 171.68 24 171 C23.34 171 22.68 171 22 171 Z M-130 215 C-129 217 -129 217 -129 217 Z M-110 215 C-111.98 215.99 -111.98 215.99 -114 217 C-114 217.66 -114 218.32 -114 219 C-113.01 219.33 -112.02 219.66 -111 220 C-110.34 219.34 -109.68 218.68 -109 218 C-109.33 217.01 -109.66 216.02 -110 215 Z M-121 215 C-121 215.66 -121 216.32 -121 217 C-123.64 217 -126.28 217 -129 217 C-128.34 217.66 -127.68 218.32 -127 219 C-123.40320934 218.67673447 -123.40320934 218.67673447 -120 218 C-119.67 217.01 -119.34 216.02 -119 215 C-119.66 215 -120.32 215 -121 215 Z M-102 217 C-102 217.66 -102 218.32 -102 219 C-103.98 219.99 -103.98 219.99 -106 221 C-105.67 221.99 -105.34 222.98 -105 224 C-104.67 223.34 -104.34 222.68 -104 222 C-103.01 221.67 -102.02 221.34 -101 221 C-101.33 219.68 -101.66 218.36 -102 217 Z M-122 219 C-122 219.99 -122 220.98 -122 222 C-121.34 222 -120.68 222 -120 222 C-120 221.01 -120 220.02 -120 219 C-120.66 219 -121.32 219 -122 219 Z M-116 219 C-115.67 219.99 -115.34 220.98 -115 222 C-114.67 221.01 -114.34 220.02 -114 219 C-114.66 219 -115.32 219 -116 219 Z M-8 220 C-8 221.98 -8 223.96 -8 226 C-6.68 225.67 -5.36 225.34 -4 225 C-5.06546953 222.86906094 -6.29159719 221.63412443 -8 220 Z M-111 221 C-110.67 221.66 -110.34 222.32 -110 223 C-109.34 222.67 -108.68 222.34 -108 222 C-108.99 221.67 -109.98 221.34 -111 221 Z M-97 222 C-97.4125 222.515625 -97.825 223.03125 -98.25 223.5625 C-98.8275 224.036875 -99.405 224.51125 -100 225 C-102.1875 224.6875 -102.1875 224.6875 -104 224 C-103.67 224.99 -103.34 225.98 -103 227 C-101.90300781 226.98839844 -100.80601563 226.97679687 -99.67578125 226.96484375 C-98.22135588 226.95546036 -96.76692865 226.94636075 -95.3125 226.9375 C-94.2306543 226.92493164 -94.2306543 226.92493164 -93.12695312 226.91210938 C-89.28444618 226.89456368 -85.73360474 227.06475779 -82 228 C-81.67 227.34 -81.34 226.68 -81 226 C-81.99 226 -82.98 226 -84 226 C-84 225.01 -84 224.02 -84 223 C-85.65 223.33 -87.3 223.66 -89 224 C-89.33 223.34 -89.66 222.68 -90 222 C-90.66 222.66 -91.32 223.32 -92 224 C-92.99 224 -93.98 224 -95 224 C-95.66 223.34 -96.32 222.68 -97 222 Z M-78 222 C-78.33 222.66 -78.66 223.32 -79 224 C-78.01 224.495 -78.01 224.495 -77 225 C-77 227 -77 229 -77 231 C-76.01 230.67 -75.02 230.34 -74 230 C-74 227.36 -74 224.72 -74 222 C-75.32 222 -76.64 222 -78 222 Z M-71 223 C-71 226 -71 226 -71 226 Z M-25 224 C-24 226 -24 226 -24 226 Z M-19 224 C-19 225.32 -19 226.64 -19 228 C-20.98 228.99 -20.98 228.99 -23 230 C-21.02 230 -19.04 230 -17 230 C-17.33 229.01 -17.66 228.02 -18 227 C-17.34 226.67 -16.68 226.34 -16 226 C-16.99 225.34 -17.98 224.68 -19 224 Z M0 224 C0 225.32 0 226.64 0 228 C0.66 228 1.32 228 2 228 C1.34 226.68 0.68 225.36 0 224 Z M-13 225 C-13 225.99 -13 226.98 -13 228 C-11.68 227.67 -10.36 227.34 -9 227 C-9 226.34 -9 225.68 -9 225 C-10.32 225 -11.64 225 -13 225 Z M-4 225 C-3 227 -3 227 -3 227 Z M-37 226 C-37.66 227.98 -38.32 229.96 -39 232 C-37.68 231.67 -36.36 231.34 -35 231 C-34.34 232.65 -33.68 234.3 -33 236 C-32.01879536 232.94736336 -32.01879536 231.05263664 -33 228 C-33.66 228 -34.32 228 -35 228 C-35 227.34 -35 226.68 -35 226 C-35.66 226 -36.32 226 -37 226 Z M6 226 C6 226.66 6 227.32 6 228 C6.66 227.67 7.32 227.34 8 227 C7.34 226.67 6.68 226.34 6 226 Z M9 227 C9.33 227.99 9.66 228.98 10 230 C12.31 230 14.62 230 17 230 C17 229.01 17 228.02 17 227 C16.34 227 15.68 227 15 227 C15 227.66 15 228.32 15 229 C13.02 228.34 11.04 227.68 9 227 Z M2 228 C2.33 228.66 2.66 229.32 3 230 C3.99 229.67 4.98 229.34 6 229 C4.68 228.67 3.36 228.34 2 228 Z M-21 232 C-20.67 233.65 -20.34 235.3 -20 237 C-19.67 236.01 -19.34 235.02 -19 234 C-19.66 233.34 -20.32 232.68 -21 232 Z M20 232 C20.33 233.32 20.66 234.64 21 236 C22.65 236 24.3 236 26 236 C24.60804085 233.2160817 22.84424221 233.02101003 20 232 Z M26 232 C26.33 232.99 26.66 233.98 27 235 C27.99 235 28.98 235 30 235 C29.67 234.01 29.34 233.02 29 232 C28.01 232 27.02 232 26 232 Z M-79 234 C-79.33 234.66 -79.66 235.32 -80 236 C-79.34 236 -78.68 236 -78 236 C-78.33 235.34 -78.66 234.68 -79 234 Z M-40 234 C-39.67 235.32 -39.34 236.64 -39 238 C-38.67 236.68 -38.34 235.36 -38 234 C-38.66 234 -39.32 234 -40 234 Z M36 234 C36 235.32 36 236.64 36 238 C34.68 238.33 33.36 238.66 32 239 C33.65 239 35.3 239 37 239 C37.33 239.66 37.66 240.32 38 241 C38.66 239.35 39.32 237.7 40 236 C39.34 236 38.68 236 38 236 C38 235.34 38 234.68 38 234 C37.34 234 36.68 234 36 234 Z M-32 236 C-31 239 -31 239 -31 239 Z M-81 237 C-81.70226141 238.24176695 -82.38629109 239.49385599 -83.0625 240.75 C-83.44535156 241.44609375 -83.82820313 242.1421875 -84.22265625 242.859375 C-85.1312406 245.36140628 -84.88336837 246.5332355 -84 249 C-83.30062798 247.5682384 -82.61587282 246.12932968 -81.9375 244.6875 C-81.55464844 243.88699219 -81.17179687 243.08648437 -80.77734375 242.26171875 C-79.70264486 239.87971247 -79.70264486 239.87971247 -81 237 Z M-19 237 C-19 238.65 -19 240.3 -19 242 C-18.34 242 -17.68 242 -17 242 C-16.87625 242.78375 -16.7525 243.5675 -16.625 244.375 C-16.20882007 247.14057822 -16.20882007 247.14057822 -14 249 C-14.66498383 244.61110675 -16.18757677 241.0188515 -18 237 C-18.33 237 -18.66 237 -19 237 Z M-41 238 C-42.32 241.63 -43.64 245.26 -45 249 C-44.01 249.495 -44.01 249.495 -43 250 C-41.68 246.7 -40.36 243.4 -39 240 C-39.66 239.34 -40.32 238.68 -41 238 Z M-31 240 C-30.67 242.64 -30.34 245.28 -30 248 C-28.57055055 245.64561267 -27.91338739 244.51967567 -28.375 241.75 C-28.58125 241.1725 -28.7875 240.595 -29 240 C-29.66 240 -30.32 240 -31 240 Z M38 241 C36.06368829 247.46453674 35.75443559 253.27621577 35.875 260 C35.88402344 260.96550781 35.89304687 261.93101562 35.90234375 262.92578125 C35.92569365 265.28412099 35.95843953 267.64192286 36 270 C36.33 270 36.66 270 37 270 C37.66 260.43 38.32 250.86 39 241 C38.67 241 38.34 241 38 241 Z M-14 250 C-13 252 -13 252 -13 252 Z M-51 251 C-50.67 252.65 -50.34 254.3 -50 256 C-49.67 255.34 -49.34 254.68 -49 254 C-46.9375 253.375 -46.9375 253.375 -45 253 C-46.32 253 -47.64 253 -49 253 C-49 252.34 -49 251.68 -49 251 C-49.66 251 -50.32 251 -51 251 Z M-27 252 C-26 254 -26 254 -26 254 Z M-13 252 C-13.63934602 257.11476819 -11.40533547 260.67254378 -9 265 C-8.06954067 262.44855176 -7.91435909 261.25993522 -8.77734375 258.640625 C-9.16019531 257.85171875 -9.54304687 257.0628125 -9.9375 256.25 C-10.50791016 255.05117188 -10.50791016 255.05117188 -11.08984375 253.828125 C-11.39019531 253.22484375 -11.69054687 252.6215625 -12 252 C-12.33 252 -12.66 252 -13 252 Z M-26 255 C-25 258 -25 258 -25 258 Z M-54 256 C-54.33 256.99 -54.66 257.98 -55 259 C-53.35 258.67 -51.7 258.34 -50 258 C-50.33 257.34 -50.66 256.68 -51 256 C-51.99 256 -52.98 256 -54 256 Z M-25 258 C-24.67 260.64 -24.34 263.28 -24 266 C-23.34 266 -22.68 266 -22 266 C-22.25561323 263.6568787 -22.59270772 261.32156597 -23 259 C-23.66 258.67 -24.32 258.34 -25 258 Z M-58 262 C-57.67 263.65 -57.34 265.3 -57 267 C-56.34 265.68 -55.68 264.36 -55 263 C-55.99 262.67 -56.98 262.34 -58 262 Z M-8 265 C-7.67 265.99 -7.34 266.98 -7 268 C-6.67 267.01 -6.34 266.02 -6 265 C-6.66 265 -7.32 265 -8 265 Z M-61 268 C-60.67 269.32 -60.34 270.64 -60 272 C-59.67 271.34 -59.34 270.68 -59 270 C-59.66 269.34 -60.32 268.68 -61 268 Z M-7 269 C-7 270.32 -7 271.64 -7 273 C-6.34 273 -5.68 273 -5 273 C-5 271.68 -5 270.36 -5 269 C-5.66 269 -6.32 269 -7 269 Z M-22 267 C-21.505 269.97 -21.505 269.97 -21 273 C-33.54 273 -46.08 273 -59 273 C-59 273.66 -59 274.32 -59 275 C-59.66 275 -60.32 275 -61 275 C-60.67 275.66 -60.34 276.32 -60 277 C-59.34 276.67 -58.68 276.34 -58 276 C-58 276.66 -58 277.32 -58 278 C-60.97 278 -63.94 278 -67 278 C-66.649375 278.94875 -66.29875 279.8975 -65.9375 280.875 C-65 284 -65 284 -66 286 C-65.34 286 -64.68 286 -64 286 C-64 286.66 -64 287.32 -64 288 C-66.31 287.67 -68.62 287.34 -71 287 C-71.33 285.68 -71.66 284.36 -72 283 C-72.33 283 -72.66 283 -73 283 C-72.4978686 286.73011894 -71.94433475 290.35756596 -71 294 C-71 294.66 -71 295.32 -71 296 C-71.66 296 -72.32 296 -73 296 C-73 296.66 -73 297.32 -73 298 C-72.01 298 -71.02 298 -70 298 C-70.495 299.485 -70.495 299.485 -71 301 C-70.01 301.33 -69.02 301.66 -68 302 C-67.3125 304.0625 -67.3125 304.0625 -67 306 C-66.34 306 -65.68 306 -65 306 C-64.89510254 306.60521484 -64.79020508 307.21042969 -64.68212891 307.83398438 C-63.53572613 311.474244 -60.31727804 313.2827186 -57.375 315.5 C-56.77042969 315.97308594 -56.16585937 316.44617188 -55.54296875 316.93359375 C-48.8596927 322.48608554 -48.8596927 322.48608554 -41 325 C-41 325.66 -41 326.32 -41 327 C-39.08594633 327.67413211 -37.16863974 328.3390332 -35.25 329 C-34.18265625 329.37125 -33.1153125 329.7425 -32.015625 330.125 C-28.88307438 331.18577477 -28.88307438 331.18577477 -25 331 C-25 331.66 -25 332.32 -25 333 C-23.71222656 333.20496094 -22.42445313 333.40992188 -21.09765625 333.62109375 C-19.41923637 333.89301652 -17.7408528 334.16516351 -16.0625 334.4375 C-14.78729492 334.63956055 -14.78729492 334.63956055 -13.48632812 334.84570312 C-12.27299805 335.04389648 -12.27299805 335.04389648 -11.03515625 335.24609375 C-10.2862915 335.36654053 -9.53742676 335.4869873 -8.76586914 335.61108398 C-7 336 -7 336 -6 337 C-5.70490939 338.40950688 -5.46294037 339.83026105 -5.24609375 341.25390625 C-5.11396484 342.10791016 -4.98183594 342.96191406 -4.84570312 343.84179688 C-4.64364258 345.18854492 -4.64364258 345.18854492 -4.4375 346.5625 C-4.29892578 347.46419922 -4.16035156 348.36589844 -4.01757812 349.29492188 C-3.67471949 351.52941433 -3.33569977 353.7644227 -3 356 C-2.67 356 -2.34 356 -2 356 C-2.56096622 340.54441355 -4.72099763 326.06819549 -8.8984375 311.16015625 C-10.29067654 306.06749241 -11.37059008 300.90587058 -12.5 295.75 C-13.98615339 289.02673542 -15.59756932 282.55341912 -18.15234375 276.140625 C-19.33761693 273.14740057 -20.17112388 270.10828546 -21 267 C-21.33 267 -21.66 267 -22 267 Z M-5 273 C-3.40601229 280.33565208 -3.40601229 280.33565208 -1.23046875 287.35546875 C-0.90135498 288.29672607 -0.57224121 289.2379834 -0.2331543 290.20776367 C0.11191162 291.19107666 0.45697754 292.17438965 0.8125 293.1875 C4.47814191 303.88911718 7.20023275 314.60803754 9.50488281 325.67333984 C10.16976131 328.79774422 10.9295803 331.89703171 11.6875 335 C13.61902137 343.3371883 14.71726347 351.79686642 15.5 360.3125 C15.7475 362.1378125 15.7475 362.1378125 16 364 C16.66 364.33 17.32 364.66 18 365 C17.86177801 361.85378318 17.71314916 358.70814434 17.5625 355.5625 C17.52318359 354.66466797 17.48386719 353.76683594 17.44335938 352.84179688 C17.40146484 351.98779297 17.35957031 351.13378906 17.31640625 350.25390625 C17.27974854 349.46314697 17.24309082 348.6723877 17.20532227 347.85766602 C17.19436743 345.98598559 17.19436743 345.98598559 16 345 C15.54540142 342.34536879 15.29756762 339.67810862 15 337 C18.63 337 22.26 337 26 337 C26.66 338.32 27.32 339.64 28 341 C28.33 341 28.66 341 29 341 C29.72084486 337.65362066 30.19894923 334.39218508 30.46484375 330.98046875 C30.54283203 330.04009766 30.62082031 329.09972656 30.70117188 328.13085938 C30.85776422 326.18057288 31.01144675 324.23005041 31.16210938 322.27929688 C31.57448406 317.36767968 32.21934345 312.81067095 33.52075195 308.06225586 C34.50297255 303.83565504 34.7611442 299.50306833 35.125 295.1875 C35.21136719 294.26646484 35.29773438 293.34542969 35.38671875 292.39648438 C35.96354806 285.85450751 36 279.64695307 36 273 C22.47 273 8.94 273 -5 273 Z M-77 293 C-77 294.32 -77 295.64 -77 297 C-76.34 297 -75.68 297 -75 297 C-75.33 295.68 -75.66 294.36 -76 293 C-76.33 293 -76.66 293 -77 293 Z M-79 297 C-78 299 -78 299 -78 299 Z M-83 300 C-82 302 -82 302 -82 302 Z M26 342 C24.47983837 350.41518047 23.72266614 358.4488728 24 367 C24.33 367 24.66 367 25 367 C25.08564209 366.42032471 25.17128418 365.84064941 25.25952148 365.2434082 C25.65087717 362.59957725 26.04417081 359.95603804 26.4375 357.3125 C26.57220703 356.40048828 26.70691406 355.48847656 26.84570312 354.54882812 C27.04389648 353.21948242 27.04389648 353.21948242 27.24609375 351.86328125 C27.36654053 351.05157471 27.4869873 350.23986816 27.61108398 349.40356445 C28.01276092 346.92113544 28.49212777 344.46270121 29 342 C28.01 342 27.02 342 26 342 Z M48 344 C48 346.64 48 349.28 48 352 C48.33 352 48.66 352 49 352 C49.33 349.36 49.66 346.72 50 344 C49.34 344 48.68 344 48 344 Z M-2 358 C-2.33 358.33 -2.66 358.66 -3 359 C-2.94524293 361.74300505 -2.82661265 364.45449833 -2.66015625 367.19140625 C-2.61434921 368.01124496 -2.56854218 368.83108368 -2.52134705 369.67576599 C-2.37330741 372.3049831 -2.21798004 374.93371338 -2.0625 377.5625 C-1.96110976 379.34046755 -1.86019202 381.11846212 -1.75976562 382.89648438 C-1.51200043 387.2646557 -1.25769669 391.63240378 -1 396 C-0.01 395.505 -0.01 395.505 1 395 C1.10560673 386.93868629 1.0260571 378.92435677 0.5625 370.875 C0.50364624 369.81067749 0.50364624 369.81067749 0.44360352 368.72485352 C0.21646162 365.07270833 -0.17428151 361.56654878 -1 358 C-1.33 358 -1.66 358 -2 358 Z M18 367 C17.67 367.66 17.34 368.32 17 369 C17.66 369.66 18.32 370.32 19 371 C18.67 369.68 18.34 368.36 18 367 Z M23 369 C22.67 370.32 22.34 371.64 22 373 C20.68 372.67 19.36 372.34 18 372 C18 379.59 18 387.18 18 395 C18.66 395 19.32 395 20 395 C22.87704025 386.29650089 23.64390639 378.0988058 24 369 C23.67 369 23.34 369 23 369 Z " fill="#F4F4F4" transform="translate(222,49)"/>
<path d="M0 0 C2.31 0.33 4.62 0.66 7 1 C7.33 1.99 7.66 2.98 8 4 C9.65 3.67 11.3 3.34 13 3 C13 3.99 13 4.98 13 6 C15.45224694 5.89386164 15.45224694 5.89386164 18 5 C19.37466625 2.52363988 19.37466625 2.52363988 20 0 C20.99 0.33 21.98 0.66 23 1 C23 1.99 23 2.98 23 4 C25.91517292 2.92598892 27.77810176 2.22189824 30 0 C30.99 0 31.98 0 33 0 C35.76314234 5.06576095 36.60188585 8.39339952 35 14 C30.63932305 13.76334167 26.27953126 13.5148399 21.92016602 13.25537109 C20.43727965 13.16878156 18.95420091 13.08542333 17.47094727 13.00537109 C15.33811484 12.88969689 13.20624585 12.76239353 11.07421875 12.6328125 C9.79119873 12.55949707 8.50817871 12.48618164 7.1862793 12.41064453 C4 12 4 12 1 10 C1 8.68 1 7.36 1 6 C0.01 5.67 -0.98 5.34 -2 5 C-1.34 3.35 -0.68 1.7 0 0 Z " fill="#EDEDED" transform="translate(321,169)"/>
<path d="M0 0 C2.375 0.25 2.375 0.25 5 1 C6.3125 3.0625 6.3125 3.0625 7 5 C6.34 5 5.68 5 5 5 C3.68 7.31 2.36 9.62 1 12 C-0.32 12 -1.64 12 -3 12 C-3 12.66 -3 13.32 -3 14 C-5.875 14.1875 -5.875 14.1875 -9 14 C-9.66 13.01 -10.32 12.02 -11 11 C-11.66 11 -12.32 11 -13 11 C-13 8.69 -13 6.38 -13 4 C-6.375 3.875 -6.375 3.875 -3 5 C-2.67 4.01 -2.34 3.02 -2 2 C-1.34 2 -0.68 2 0 2 C0 1.34 0 0.68 0 0 Z " fill="#E9E9E9" transform="translate(205,174)"/>
<path d="M0 0 C0.66 0.33 1.32 0.66 2 1 C-1.3 4.3 -4.6 7.6 -8 11 C-8.66 10.67 -9.32 10.34 -10 10 C-7.02911382 6.00073014 -3.87051275 3.07881696 0 0 Z " fill="#EFEFEF" transform="translate(106,161)"/>
<path d="M0 0 C0.74362793 0.01047363 1.48725586 0.02094727 2.25341797 0.03173828 C3.46191406 0.04140625 3.46191406 0.04140625 4.69482422 0.05126953 C5.95746094 0.07640625 5.95746094 0.07640625 7.24560547 0.10205078 C8.51984375 0.11558594 8.51984375 0.11558594 9.81982422 0.12939453 C11.9202043 0.15299431 14.02043991 0.18886595 16.12060547 0.22705078 C16.12060547 0.55705078 16.12060547 0.88705078 16.12060547 1.22705078 C10.51060547 1.22705078 4.90060547 1.22705078 -0.87939453 1.22705078 C-1.53939453 2.54705078 -2.19939453 3.86705078 -2.87939453 5.22705078 C-3.20939453 4.23705078 -3.53939453 3.24705078 -3.87939453 2.22705078 C-1.87939453 0.22705078 -1.87939453 0.22705078 0 0 Z " fill="#FBFBFB" transform="translate(327.87939453125,180.77294921875)"/>
<path d="M0 0 C1.875 0.3125 1.875 0.3125 4 1 C4.66 1.99 5.32 2.98 6 4 C4.02 4.99 4.02 4.99 2 6 C2 5.34 2 4.68 2 4 C0.35 4 -1.3 4 -3 4 C-2.01 3.67 -1.02 3.34 0 3 C0 2.01 0 1.02 0 0 Z " fill="#C8C8C8" transform="translate(366,169)"/>
<path d="M0 0 C0.99 0 1.98 0 3 0 C3.33 1.32 3.66 2.64 4 4 C5.32 4.33 6.64 4.66 8 5 C6.25 5.75 6.25 5.75 4 6 C1.75 4.1875 1.75 4.1875 0 2 C0 1.34 0 0.68 0 0 Z " fill="#D6D6D6" transform="translate(215,62)"/>
<path d="M0 0 C0.33 0 0.66 0 1 0 C1 1.65 1 3.3 1 5 C-0.98 5.99 -0.98 5.99 -3 7 C-3.33 6.01 -3.66 5.02 -4 4 C-2.68 3.67 -1.36 3.34 0 3 C0 2.01 0 1.02 0 0 Z " fill="#DBDBDB" transform="translate(166,313)"/>
<path d="M0 0 C0.33 0.99 0.66 1.98 1 3 C0.34 3.99 -0.32 4.98 -1 6 C-1.33 5.34 -1.66 4.68 -2 4 C-1.0625 1.875 -1.0625 1.875 0 0 Z " fill="#E1E1E1" transform="translate(168,105)"/>
<path d="M0 0 C1 4 1 4 1 4 Z " fill="#CCCCCC" transform="translate(244,181)"/>
<path d="M0 0 C0.66 0 1.32 0 2 0 C1.67 0.66 1.34 1.32 1 2 C0.67 1.34 0.34 0.68 0 0 Z " fill="#FFFFFF" transform="translate(292,200)"/>
<path d="M0 0 C0.66 0.66 1.32 1.32 2 2 C1.34 2 0.68 2 0 2 C0 1.34 0 0.68 0 0 Z " fill="#DDDDDD" transform="translate(239,191)"/>
<path d="" fill="#CCCCCC" transform="translate(0,0)"/>
<path d="M0 0 C2 1 2 1 2 1 Z " fill="#FFFFFF" transform="translate(247,232)"/>
<path d="" fill="#FFFFFF" transform="translate(0,0)"/>
<path d="M0 0 C2 1 2 1 2 1 Z " fill="#FFFFFF" transform="translate(150,222)"/>
<path d="M0 0 C2 1 2 1 2 1 Z " fill="#FFFFFF" transform="translate(278,177)"/>
<path d="" fill="#FFFFFF" transform="translate(0,0)"/>
<path d="" fill="#CCCCCC" transform="translate(0,0)"/>
<path d="" fill="#FFFFFF" transform="translate(0,0)"/>
<path d="" fill="#FFFFFF" transform="translate(0,0)"/>
<path d="" fill="#FFFFFF" transform="translate(0,0)"/>
<path d="" fill="#FFFFFF" transform="translate(0,0)"/>
<path d="" fill="#9A9A9A" transform="translate(0,0)"/>
<path d="" fill="#FFFFFF" transform="translate(0,0)"/>
<path d="" fill="#FFFFFF" transform="translate(0,0)"/>
<path d="" fill="#FFFFFF" transform="translate(0,0)"/>
</svg>
